<?xml version="1.0" encoding="UTF-8" standalone="no"?>
<svg
   version="1.0"
   width="512pt"
   height="293pt"
   viewBox="0 0 512 293"
   preserveAspectRatio="xMidYMid meet"
   id="svg10"
   sodipodi:docname="furaffinity.svg"
   inkscape:version="1.3 (0e150ed6c4, 2023-07-21)"
   xmlns:inkscape="http://www.inkscape.org/namespaces/inkscape"
   xmlns:sodipodi="http://sodipodi.sourceforge.net/DTD/sodipodi-0.dtd"
   xmlns="http://www.w3.org/2000/svg"
   xmlns:svg="http://www.w3.org/2000/svg"
   xmlns:rdf="http://www.w3.org/1999/02/22-rdf-syntax-ns#"
   xmlns:cc="http://creativecommons.org/ns#"
   xmlns:dc="http://purl.org/dc/elements/1.1/">
  <metadata
     id="metadata16">
    <rdf:RDF>
      <cc:Work
         rdf:about="">
        <dc:format>image/svg+xml</dc:format>
        <dc:type
           rdf:resource="http://purl.org/dc/dcmitype/StillImage" />
      </cc:Work>
    </rdf:RDF>
  </metadata>
  <defs
     id="defs14" />
  <sodipodi:namedview
     pagecolor="#ffffff"
     bordercolor="#666666"
     borderopacity="1"
     objecttolerance="10"
     gridtolerance="10"
     guidetolerance="10"
     inkscape:pageopacity="0"
     inkscape:pageshadow="2"
     inkscape:window-width="1920"
     inkscape:window-height="1009"
     id="namedview12"
     showgrid="false"
     inkscape:zoom="0.59454974"
     inkscape:cx="491.96893"
     inkscape:cy="9.2506978"
     inkscape:window-x="-8"
     inkscape:window-y="-8"
     inkscape:window-maximized="1"
     inkscape:current-layer="g8"
     inkscape:showpageshadow="2"
     inkscape:pagecheckerboard="0"
     inkscape:deskcolor="#d1d1d1"
     inkscape:document-units="pt" />
  <g
     transform="matrix(0.05,0,0,-0.05,0,293)"
     id="g8"
     style="fill:#000000;stroke:none">
    <path
       id="path2"
       d="m 2360,5848 c -25,-5 -65,-13 -90,-18 -291,-56 -350,-71 -469,-114 -41,-15 -112,-49 -159,-76 -46,-28 -88,-50 -93,-50 -5,0 -12,-7 -15,-15 -4,-9 -70,-47 -148,-86 -135,-68 -316,-176 -384,-229 -185,-144 -411,-360 -460,-439 -8,-14 -25,-37 -37,-51 C 464,4724 353,4526 270,4355 225,4262 184,4177 179,4167 159,4130 78,3906 42,3787 L 5,3665 2,1833 0,0 h 936 936 l -6,43 c -25,175 -29,267 -18,377 22,209 55,300 200,550 101,175 146,233 288,372 221,215 358,306 645,432 119,51 689,206 850,230 159,24 784,76 915,76 43,0 84,4 90,8 31,22 57,87 61,155 2,40 8,105 13,145 21,157 9,247 -51,386 -80,183 -177,304 -302,377 -113,67 -207,92 -432,119 -44,5 -112,14 -150,19 -39,6 -164,15 -278,21 -171,9 -255,9 -479,-5 -149,-9 -274,-18 -278,-20 -4,-2 -80,-13 -171,-25 -90,-11 -177,-25 -194,-31 -16,-5 -63,-14 -104,-19 -41,-6 -79,-15 -86,-20 -16,-13 -139,-40 -185,-40 h -36 l 3,158 c 10,449 30,645 72,696 7,9 26,16 42,16 17,0 39,10 51,22 19,19 38,23 118,29 59,3 120,15 160,29 36,12 106,26 155,30 50,4 117,12 150,18 33,6 204,16 380,22 176,5 406,15 510,21 195,11 515,6 646,-10 41,-5 117,-15 169,-21 223,-27 380,-66 560,-138 178,-71 236,-103 323,-177 243,-208 392,-431 478,-713 16,-53 41,-164 55,-247 25,-142 27,-173 32,-590 3,-319 0,-584 -14,-963 -19,-551 -17,-630 22,-1006 8,-76 14,-162 14,-192 0,-29 7,-72 16,-94 l 17,-41 811,4 c 890,4 826,0 1071,66 212,57 565,214 670,298 17,13 59,45 95,71 156,112 431,360 555,502 65,74 144,177 201,264 21,33 50,75 63,94 85,126 253,507 320,723 39,129 50,189 61,343 9,138 7,152 -19,161 -10,3 -23,16 -29,29 -7,16 -22,25 -50,30 -22,3 -242,-3 -489,-14 -246,-11 -485,-20 -531,-20 h -83 l 3,437 3,437 -46,17 c -38,15 -97,19 -340,24 -162,3 -358,8 -437,11 l -143,6 7,502 7,501 -42,42 c -28,28 -54,44 -79,49 -20,4 -113,39 -207,79 -206,88 -396,151 -530,175 -79,14 -180,46 -214,67 -2,1 8,71 23,155 14,84 31,191 37,238 5,47 14,103 19,125 14,66 42,395 36,421 l -6,24 -2228,-1 c -1339,-1 -2245,-5 -2272,-11 z"
       inkscape:connector-curvature="0"
       style="fill:#ffffff;fill-opacity:1" />
    <path
       d="m 7141,5823 c -5,-21 -14,-105 -20,-187 -6,-82 -15,-154 -20,-160 -5,-6 -11,-63 -14,-126 -5,-117 -14,-173 -44,-269 -12,-38 -14,-58 -6,-69 9,-15 216,-88 543,-193 192,-62 334,-111 423,-149 89,-37 92,-39 100,-76 5,-22 5,-153 1,-294 -12,-351 -11,-497 2,-510 21,-21 171,-29 559,-30 h 400 l -2,-122 c -2,-68 -10,-159 -20,-203 -23,-113 -31,-576 -9,-597 21,-21 174,-33 426,-33 136,0 237,5 275,13 33,7 100,17 149,21 130,13 130,14 133,199 2,81 7,208 13,282 5,74 14,241 20,370 29,658 28,653 89,1130 34,267 53,403 81,576 14,87 20,171 20,293 v 171 H 8695 7151 Z"
       id="path4"
       inkscape:connector-curvature="0"
       style="fill:#ffffff;fill-opacity:1" />
    <path
       d="m 4630,1464 c -8,-2 -123,-10 -255,-18 -471,-29 -710,-81 -900,-194 C 3330,1166 3117,954 3036,817 2892,571 2900,376 3066,93 l 55,-93 h 790 c 787,0 790,0 832,21 43,22 54,31 119,93 39,38 78,115 105,205 19,65 13,238 -12,349 -26,117 -56,362 -64,532 -10,193 -22,233 -75,255 -32,14 -146,19 -186,9 z"
       id="path6"
       inkscape:connector-curvature="0"
       style="fill:#ffffff;fill-opacity:1" />
  </g>
</svg>
